HIERARCHY
ROOT SpineBase
{
  OFFSET 0.000000 0.000000 0.000000
  CHANNELS 6 Xposition Yposition Zposition Zrotation Xrotation Yrotation
  JOINT SpineMid
  {
    OFFSET 0.000000 31.015968 0.000000
    CHANNELS 3 Zrotation Xrotation Yrotation
    JOINT SpineShoulder
    {
      OFFSET -0.027176 23.016087 -0.882157
      CHANNELS 3 Zrotation Xrotation Yrotation
      JOINT Neck
      {
        OFFSET 0.021770 7.608872 -0.627489
        CHANNELS 3 Zrotation Xrotation Yrotation
        JOINT Head
        {
          OFFSET 2.617047 14.126519 3.688699
          CHANNELS 3 Zrotation Xrotation Yrotation
          End Site
          {
            OFFSET 0 0 0
          }
        }
      }
      JOINT ShoulderLeft
      {
        OFFSET -10.922848 -2.618739 -11.921466
        CHANNELS 3 Zrotation Xrotation Yrotation
        JOINT ElbowLeft
        {
          OFFSET -6.252978 -23.152872 -6.194142
          CHANNELS 3 Zrotation Xrotation Yrotation
          JOINT WristLeft
          {
            OFFSET 24.956078 -8.637081 -1.626460
            CHANNELS 3 Zrotation Xrotation Yrotation
            JOINT HandLeft
            {
              OFFSET 7.507744 0.578310 2.145126
              CHANNELS 3 Zrotation Xrotation Yrotation
              JOINT HandTipLeft
              {
                OFFSET 7.430277 -0.774184 -0.261077
                CHANNELS 3 Zrotation Xrotation Yrotation
                End Site
                {
                  OFFSET 0 0 0
                }
              }
              JOINT ThumbLeft
              {
                OFFSET -0.127092 -0.515820 -3.939344
                CHANNELS 3 Zrotation Xrotation Yrotation
                End Site
                {
                  OFFSET 0 0 0
                }
              }
            }
          }
        }
      }
      JOINT ShoulderRight
      {
        OFFSET 13.687641 -5.143161 9.604588
        CHANNELS 3 Zrotation Xrotation Yrotation
        JOINT ElbowRight
        {
          OFFSET 1.338819 -24.241670 -8.490299
          CHANNELS 3 Zrotation Xrotation Yrotation
          JOINT WristRight
          {
            OFFSET 5.945379 0.683068 -23.845993
            CHANNELS 3 Zrotation Xrotation Yrotation
            JOINT HandRight
            {
              OFFSET -1.086605 -1.588155 -3.219386
              CHANNELS 3 Zrotation Xrotation Yrotation
              JOINT HandTipRight
              {
                OFFSET -1.203694 -0.191609 -1.746159
                CHANNELS 3 Zrotation Xrotation Yrotation
                End Site
                {
                  OFFSET 0 0 0
                }
              }
              JOINT ThumbRight
              {
                OFFSET 1.987860 -1.412987 -1.767524
                CHANNELS 3 Zrotation Xrotation Yrotation
                End Site
                {
                  OFFSET 0 0 0
                }
              }
            }
          }
        }
      }
    }
  }
  JOINT HipLeft
  {
    OFFSET -5.056113 1.548731 -8.150446
    CHANNELS 3 Zrotation Xrotation Yrotation
    JOINT KneeLeft
    {
      OFFSET -6.865463 -37.554899 -0.842187
      CHANNELS 3 Zrotation Xrotation Yrotation
      JOINT AnkleLeft
      {
        OFFSET -7.687404 -36.882666 5.634563
        CHANNELS 3 Zrotation Xrotation Yrotation
        JOINT FootLeft
        {
          OFFSET 0.731922 -8.156277 -6.349983
          CHANNELS 3 Zrotation Xrotation Yrotation
          End Site
          {
            OFFSET 0 0 0
          }
        }
      }
    }
  }
  JOINT HipRight
  {
    OFFSET 5.827305 -0.219677 1.064544
    CHANNELS 3 Zrotation Xrotation Yrotation
    JOINT KneeRight
    {
      OFFSET -0.037211 -38.303331 4.941180
      CHANNELS 3 Zrotation Xrotation Yrotation
      JOINT AnkleRight
      {
        OFFSET -5.300207 -35.514026 13.261545
        CHANNELS 3 Zrotation Xrotation Yrotation
        JOINT FootRight
        {
          OFFSET 3.656712 -8.044571 -4.829456
          CHANNELS 3 Zrotation Xrotation Yrotation
          End Site
          {
            OFFSET 0 0 0
          }
        }
      }
    }
  }
}
MOTION
Frames: 5
Frame Time: 0.033333
-39.283642 84.140963 355.252057 -0.000000 0.000000 -40.254592 -0.000000 0.000000 40.254592 -0.000000 0.000000 0.000000 -0.000000 0.000000 0.000000 0.000000 0.000000 0.000000 -0.000000 0.000000 0.000000 -0.000000 0.000000 0.000000 -0.000000 0.000000 0.000000 -0.000000 0.000000 0.000000 0.000000 0.000000 0.000000 0.000000 0.000000 0.000000 -0.000000 0.000000 0.000000 -0.000000 0.000000 0.000000 -0.000000 0.000000 0.000000 -0.000000 0.000000 0.000000 0.000000 0.000000 0.000000 0.000000 0.000000 0.000000 -0.000000 0.000000 40.254592 -0.000000 0.000000 0.000000 -0.000000 0.000000 0.000000 0.000000 0.000000 0.000000 -0.000000 0.000000 40.254592 -0.000000 0.000000 0.000000 -0.000000 0.000000 0.000000 0.000000 0.000000 0.000000
-40.054124 84.146886 354.357187 0.728168 -0.567842 -39.025301 -0.094322 0.032262 39.053966 -0.001449 0.005743 0.031579 0.098617 -0.580328 -0.059269 0.000000 0.000000 0.000000 -0.673278 0.478314 -0.054100 -4.263342 0.232930 1.663023 3.700207 0.741280 -12.374382 4.975498 0.540923 14.460015 0.000000 0.000000 0.000000 0.000000 0.000000 0.000000 0.847675 -2.782309 -0.743821 -2.886211 -3.182044 2.929741 -1.179411 -2.520386 10.878080 2.494669 11.770243 -8.993968 0.000000 0.000000 0.000000 0.000000 0.000000 0.000000 -0.923230 -0.017393 39.028770 0.824612 -0.977151 0.336747 -0.818976 0.981880 -0.322697 0.000000 0.000000 0.000000 -0.923230 -0.017393 39.028770 0.825535 -0.617116 0.404441 -1.601714 -1.423248 -0.880116 0.000000 0.000000 0.000000
-40.809947 84.134574 353.501914 1.385220 -1.057428 -38.012248 -0.173858 0.061709 38.072374 -0.004682 0.012079 0.059848 0.082552 -1.056925 -0.092219 0.000000 0.000000 0.000000 -1.394485 -0.227121 0.235734 -7.863188 1.485222 2.933358 7.051781 1.646081 -25.178991 9.066601 2.813349 29.065918 0.000000 0.000000 0.000000 0.000000 0.000000 0.000000 1.440713 -5.236509 -1.311924 -5.028597 -6.002367 5.266396 -1.131718 -3.321209 19.299721 7.021815 19.265429 -17.225439 0.000000 0.000000 0.000000 0.000000 0.000000 0.000000 -1.742517 -0.020142 38.024725 1.572407 -1.878205 0.657742 -1.551596 1.895432 -0.606297 0.000000 0.000000 0.000000 -0.784176 -0.567745 38.084439 1.154816 -0.156420 0.698625 -3.047482 -2.763383 -1.737621 0.000000 0.000000 0.000000
-41.551114 84.104027 352.686239 1.970390 -1.468048 -37.240427 -0.239396 0.086422 37.332656 -0.009976 0.019040 0.084765 -0.050882 -1.424632 -0.101240 0.000000 0.000000 0.000000 -2.008908 -0.215502 0.312302 -10.834509 1.850388 4.119788 9.977501 2.574028 -36.965020 11.664557 6.032035 42.093395 0.000000 0.000000 0.000000 0.000000 0.000000 0.000000 1.824499 -7.405277 -1.740190 -6.595043 -8.229143 6.951628 -0.776183 -2.627830 25.625516 11.705064 23.049776 -24.391227 0.000000 0.000000 0.000000 0.000000 0.000000 0.000000 -2.456860 -0.024270 37.265153 2.240610 -2.702357 0.958981 -1.903768 1.980887 -1.172067 0.000000 0.000000 0.000000 -0.994735 -0.705630 37.372576 1.487918 -0.255333 0.972720 -4.319304 -4.007404 -2.569224 0.000000 0.000000 0.000000
-42.277623 84.055245 351.910162 2.483081 -1.799241 -36.729640 -0.291688 0.104796 36.852727 -0.017560 0.026637 0.106297 -0.303819 -1.679540 -0.088247 0.000000 0.000000 0.000000 -2.567518 -0.117706 0.358430 -13.040364 2.009924 5.009142 12.312378 3.393913 -46.509618 12.881372 9.107380 52.246296 0.000000 0.000000 0.000000 0.000000 0.000000 0.000000 2.033315 -9.330442 -2.055073 -7.747845 -9.753563 7.965948 -0.684801 -0.944079 30.627622 15.709729 24.013517 -30.468860 0.000000 0.000000 0.000000 0.000000 0.000000 0.000000 -3.065778 -0.044076 36.767457 2.826828 -3.449276 1.236843 -2.013215 1.864137 -1.858594 0.000000 0.000000 0.000000 -1.074933 -0.752671 36.933719 1.653340 -0.373263 1.199725 -5.401140 -5.144160 -3.371290 0.000000 0.000000 0.000000
